<?xml version="1.0" encoding="UTF-8"?>
<svg version="1.1" xmlns="http://www.w3.org/2000/svg" width="149" height="149">
<path d="M0 0 C49.17 0 98.34 0 149 0 C149 49.17 149 98.34 149 149 C99.83 149 50.66 149 0 149 C0 99.83 0 50.66 0 0 Z " fill="#FDFDFD" transform="translate(0,0)"/>
<path d="M0 0 C2.26725143 1.12480372 4.4742795 2.32851697 6.68408203 3.56225586 C8.35480776 4.47062286 10.02672577 5.3767997 11.69970703 6.28100586 C12.99424805 6.98290039 12.99424805 6.98290039 14.31494141 7.69897461 C19.64350156 10.53207651 25.07329599 13.16742171 30.49731445 15.81201172 C31.28984619 16.20267822 32.08237793 16.59334473 32.89892578 16.99584961 C33.94294556 17.50523071 33.94294556 17.50523071 35.00805664 18.02490234 C37.2555864 19.26801119 39.09474552 20.38231574 40.99658203 22.12475586 C41.55834961 24.48846436 41.55834961 24.48846436 41.64111328 27.3112793 C41.67954346 28.36957947 41.71797363 29.42787964 41.75756836 30.51824951 C41.77456787 31.66199036 41.79156738 32.8057312 41.80908203 33.98413086 C41.83188232 35.16187073 41.85468262 36.3396106 41.87817383 37.55303955 C41.91598427 40.04782731 41.94211417 42.54281509 41.95751953 45.0378418 C41.99632008 48.84902565 42.12030091 52.65154171 42.24658203 56.46069336 C42.55812311 74.14661826 42.55812311 74.14661826 38.53125 79.24780273 C35.36876578 81.11177362 32.52913188 82.16414053 28.99658203 83.12475586 C27.5846446 83.81700164 26.18754443 84.54148327 24.81689453 85.31225586 C23.58745232 85.92114715 22.35568676 86.52537095 21.12158203 87.12475586 C19.75928303 87.79076871 18.39731036 88.45744943 17.03564453 89.12475586 C16.36436523 89.4534668 15.69308594 89.78217773 15.00146484 90.12084961 C13.02893734 91.10855457 11.08575102 92.13864285 9.14501953 93.18725586 C8.52997559 93.51338867 7.91493164 93.83952148 7.28125 94.17553711 C5.60815919 95.06541085 3.9426973 95.96958639 2.27783203 96.87475586 C-2.70951025 98.77469577 -6.51756626 99.04405937 -11.47509766 97.21069336 C-14.24586077 95.9348871 -16.93551342 94.55747566 -19.62841797 93.12475586 C-20.59320068 92.6265332 -21.5579834 92.12831055 -22.55200195 91.61499023 C-30.1555404 87.65863625 -37.64182022 83.51479446 -45.00341797 79.12475586 C-45.93025391 78.57819336 -46.85708984 78.03163086 -47.81201172 77.46850586 C-50.00341797 76.12475586 -50.00341797 76.12475586 -51.00341797 75.12475586 C-51.09700987 73.40610177 -51.12086408 71.68359842 -51.11694336 69.96240234 C-51.11686783 68.86133652 -51.1167923 67.76027069 -51.11671448 66.62583923 C-51.11155319 65.42794266 -51.10639191 64.23004608 -51.10107422 62.99584961 C-51.09965927 61.77648209 -51.09824432 60.55711456 -51.0967865 59.30079651 C-51.09116764 55.38792516 -51.07861193 51.47511005 -51.06591797 47.56225586 C-51.0609054 44.91707439 -51.05634207 42.27189203 -51.05224609 39.62670898 C-51.04119208 33.1260386 -51.02443561 26.62540125 -51.00341797 20.12475586 C-50.36166626 19.79167923 -49.71991455 19.4586026 -49.05871582 19.11543274 C-46.09161119 17.57441702 -43.12563671 16.03123784 -40.15966797 14.48803711 C-39.1506543 13.96439575 -38.14164063 13.44075439 -37.10205078 12.90124512 C-29.69509683 9.04469506 -22.36222126 5.0717831 -15.10075378 0.94767761 C-9.65545982 -2.09627079 -5.93724393 -2.59383616 0 0 Z " fill="#4C4040" transform="translate(78.00341796875,29.875244140625)"/>
<path d="M0 0 C9.19973298 0.35113485 9.19973298 0.35113485 12.3125 2.875 C12.869375 3.57625 13.42625 4.2775 14 5 C17.30546023 7.28839555 20.01927772 8.43132539 24 9 C24.495 10.485 24.495 10.485 25 12 C24.67 12.33 24.34 12.66 24 13 C26.64 14.32 29.28 15.64 32 17 C30.7907307 20.62780791 29.20090824 21.51777659 25.88671875 23.265625 C22.85635434 24.44514572 21.07520485 23.98406555 18 23 C17.33226562 22.63261719 16.66453125 22.26523437 15.9765625 21.88671875 C11.39005417 19.36407158 11.39005417 19.36407158 6.3046875 19.59375 C3.79517727 20.61803989 1.40901146 21.7607071 -1 23 C-1.99 23.33 -2.98 23.66 -4 24 C-3.34 24.61875 -2.68 25.2375 -2 25.875 C0 28 0 28 0 30 C-2.31 29.34 -4.62 28.68 -7 28 C-7 32.95 -7 37.9 -7 43 C-6.34 43 -5.68 43 -5 43 C-5 43.66 -5 44.32 -5 45 C-5.99 45.495 -5.99 45.495 -7 46 C-7.46954261 49.04581269 -7.46954261 49.04581269 -7.625 52.5625 C-7.69976562 53.76003906 -7.77453125 54.95757812 -7.8515625 56.19140625 C-7.90054688 57.11824219 -7.94953125 58.04507813 -8 59 C-9.32 59 -10.64 59 -12 59 C-12 58.34 -12 57.68 -12 57 C-15.3 56.34 -18.6 55.68 -22 55 C-22 55.66 -22 56.32 -22 57 C-21.154375 57.0825 -20.30875 57.165 -19.4375 57.25 C-15.27886509 58.15733853 -12.60417301 59.76541273 -9 62 C-9 66.95 -9 71.9 -9 77 C-8.34 77 -7.68 77 -7 77 C-7 77.66 -7 78.32 -7 79 C-6.0925 79.268125 -5.185 79.53625 -4.25 79.8125 C-1.27008166 80.90131632 0.68590359 81.86391101 3 84 C3 84.66 3 85.32 3 86 C-1.50214205 84.6188546 -5.53836163 82.82659599 -9.71875 80.6640625 C-10.33971558 80.34343842 -10.96068115 80.02281433 -11.60046387 79.69247437 C-12.90579835 79.01714649 -14.2100244 78.33967222 -15.51318359 77.66015625 C-17.49144154 76.62945907 -19.47390696 75.60723422 -21.45703125 74.5859375 C-22.73203132 73.92498141 -24.00677941 73.26353898 -25.28125 72.6015625 C-26.42658203 72.00682129 -27.57191406 71.41208008 -28.75195312 70.79931641 C-36.48399056 66.51600944 -36.48399056 66.51600944 -39 64 C-39.0935919 62.28134591 -39.11744611 60.55884256 -39.11352539 58.83764648 C-39.11344986 57.73658066 -39.11337433 56.63551483 -39.11329651 55.50108337 C-39.10813522 54.3031868 -39.10297394 53.10529022 -39.09765625 51.87109375 C-39.0962413 50.65172623 -39.09482635 49.4323587 -39.09336853 48.17604065 C-39.08774967 44.2631693 -39.07519396 40.35035419 -39.0625 36.4375 C-39.05748743 33.79231853 -39.0529241 31.14713617 -39.04882812 28.50195312 C-39.03777411 22.00128274 -39.02101764 15.50064539 -39 9 C-37.68 9 -36.36 9 -35 9 C-34.67 10.32 -34.34 11.64 -34 13 C-34.66 13 -35.32 13 -36 13 C-35.67 17.95 -35.34 22.9 -35 28 C-31.37 29.65 -27.74 31.3 -24 33 C-24.14058476 30.54126232 -24.28722999 28.08314825 -24.4375 25.625 C-24.47681641 24.92632812 -24.51613281 24.22765625 -24.55664062 23.5078125 C-24.74280134 19.62639508 -24.74280134 19.62639508 -26 16 C-24.700625 15.5978125 -24.700625 15.5978125 -23.375 15.1875 C-19.96207798 14.06567182 -19.96207798 14.06567182 -16.75 12.375 C-14 11 -14 11 -12 11 C-12 10.34 -12 9.68 -12 9 C-12.86625 8.731875 -13.7325 8.46375 -14.625 8.1875 C-17.91791964 7.02888013 -20.91127875 5.61790161 -24 4 C-24 3.67 -24 3.34 -24 3 C-20.20006442 3.37999356 -17.38260718 3.79275444 -14 5.625 C-10.17263004 7.37921123 -8.04511704 6.97382447 -4 6 C-2.6520257 5.36345658 -1.31403276 4.70394612 0 4 C0.99 4 1.98 4 3 4 C2.01 2.68 1.02 1.36 0 0 Z " fill="#37414D" transform="translate(66,41)"/>
<path d="M0 0 C2.96175123 0.61277612 4.38058783 1.25372522 7 3 C7.44151306 5.24345398 7.44151306 5.24345398 7.53100586 8.07299805 C7.56951157 9.13137375 7.60801727 10.18974945 7.64768982 11.28019714 C7.66985062 12.42909927 7.69201141 13.5780014 7.71484375 14.76171875 C7.73905899 15.94087357 7.76327423 17.12002838 7.78822327 18.33491516 C7.82977633 20.83569059 7.86192933 23.3366369 7.88549805 25.83764648 C7.93709391 29.65743607 8.0686414 33.4693927 8.20117188 37.28710938 C8.5447178 55.03441459 8.5447178 55.03441459 4.5456543 60.12304688 C1.38041632 61.98744407 -1.46553639 63.03615521 -5 64 C-6.44764045 64.71486717 -7.87980947 65.46301796 -9.28515625 66.2578125 C-10.54174193 66.88529839 -11.8008344 67.50779175 -13.0625 68.125 C-13.73587402 68.45628906 -14.40924805 68.78757812 -15.10302734 69.12890625 C-16.44350753 69.78557226 -17.78525861 70.43965188 -19.12841797 71.09082031 C-20.84172429 71.92311261 -22.54819004 72.76944859 -24.25390625 73.6171875 C-25.67509766 74.30167969 -25.67509766 74.30167969 -27.125 75 C-28.33542969 75.5878125 -28.33542969 75.5878125 -29.5703125 76.1875 C-32.47667057 77.15940109 -34.95308652 77.05432522 -38 77 C-38.09901748 72.37359847 -38.17153649 67.74781613 -38.21972656 63.12060547 C-38.2398188 61.54725396 -38.26709799 59.97397692 -38.30175781 58.40087891 C-38.35038494 56.13685728 -38.37299135 53.87382427 -38.390625 51.609375 C-38.41127014 50.90818542 -38.43191528 50.20699585 -38.45318604 49.48455811 C-38.45476404 46.03534714 -38.27583472 44.33781068 -36.06152344 41.62597656 C-35.3812207 41.0894043 -34.70091797 40.55283203 -34 40 C-33.54625 39.46375 -33.0925 38.9275 -32.625 38.375 C-30.33056903 36.43355841 -27.8566765 35.8252621 -25 35 C-23.0354874 36.9645126 -23.63545526 40.67592851 -23.5 43.375 C-23.24723559 48.76355137 -23.24723559 48.76355137 -22 54 C-22.08744008 56.5808926 -22.22868495 59.11691478 -22.4375 61.6875 C-22.48970703 62.38939453 -22.54191406 63.09128906 -22.59570312 63.81445312 C-22.72507865 65.54338054 -22.86182531 67.27175355 -23 69 C-22.01 69 -21.02 69 -20 69 C-20 68.34 -20 67.68 -20 67 C-16.27034861 64.96564469 -14.33094958 64 -10 64 C-10.01160156 62.78441406 -10.02320312 61.56882813 -10.03515625 60.31640625 C-10.04453278 58.73177236 -10.05363313 57.14713682 -10.0625 55.5625 C-10.07087891 54.76005859 -10.07925781 53.95761719 -10.08789062 53.13085938 C-10.0965143 51.08704779 -10.0522815 49.04316098 -10 47 C-9.67 46.67 -9.34 46.34 -9 46 C-8.89805924 42.44717557 -8.80137629 38.8999844 -8.83398438 35.34570312 C-8.76989918 33.08718562 -8.64224728 31.16845378 -8 29 C-5.30108449 26.70374527 -2.84131604 25.40928888 0.3125 23.875 C2.1891646 23.11181389 2.1891646 23.11181389 3 21 C3.66 21 4.32 21 5 21 C5 15.72 5 10.44 5 5 C3.68 4.67 2.36 4.34 1 4 C0.505 2.02 0.505 2.02 0 0 Z " fill="#2F4760" transform="translate(112,49)"/>
<path d="M0 0 C0.33 0.66 0.66 1.32 1 2 C1.928125 2.309375 2.85625 2.61875 3.8125 2.9375 C6.80735213 3.93578404 8.61830597 4.98472043 11 7 C10.67 7.99 10.34 8.98 10 10 C10.66 10.33 11.32 10.66 12 11 C10.37750059 11.83819158 8.75191503 12.6704116 7.125 13.5 C6.22007813 13.9640625 5.31515625 14.428125 4.3828125 14.90625 C2 16 2 16 0 16 C0 20.95 0 25.9 0 31 C1.65 31 3.3 31 5 31 C4.18015625 31.50015625 3.3603125 32.0003125 2.515625 32.515625 C-0.34935207 34.83424204 -0.34935207 34.83424204 -0.453125 38.546875 C-0.40881495 39.94885174 -0.33970883 41.35019484 -0.25 42.75 C-0.19850987 44.26417302 -0.15175984 45.77851351 -0.109375 47.29296875 C-0.08423828 48.06688965 -0.05910156 48.84081055 -0.03320312 49.63818359 C0.02052392 53.45991469 -0.22868969 57.25205908 -0.5 61.0625 C-0.54801758 61.75891602 -0.59603516 62.45533203 -0.64550781 63.17285156 C-0.75900581 64.7822369 -0.87874309 66.39118064 -1 68 C1.97 67.505 1.97 67.505 5 67 C4 68.5 4 68.5 2 70 C-0.71846235 70.27345479 -3.25677199 70.13491285 -6 70 C-6.24492188 69.38640625 -6.48984375 68.7728125 -6.7421875 68.140625 C-8.25052285 65.57364433 -9.44256788 64.96142096 -12.125 63.75 C-12.84945312 63.41484375 -13.57390625 63.0796875 -14.3203125 62.734375 C-14.87460937 62.49203125 -15.42890625 62.2496875 -16 62 C-16 61.34 -16 60.68 -16 60 C-16.66 60 -17.32 60 -18 60 C-18 55.05 -18 50.1 -18 45 C-20.98503412 43.50748294 -23.61234773 42.39012279 -26.75 41.375 C-27.54921875 41.11460938 -28.3484375 40.85421875 -29.171875 40.5859375 C-29.77515625 40.39257812 -30.3784375 40.19921875 -31 40 C-31 39.34 -31 38.68 -31 38 C-27.05272412 37.82057837 -24.4019487 37.90649311 -21 40 C-21 40.66 -21 41.32 -21 42 C-19.68 42 -18.36 42 -17 42 C-17 37.71 -17 33.42 -17 29 C-16.01 28.67 -15.02 28.34 -14 28 C-14 27.34 -14 26.68 -14 26 C-14.66 26 -15.32 26 -16 26 C-16 21.05 -16 16.1 -16 11 C-11 12 -11 12 -9 13 C-9.66 12.38125 -10.32 11.7625 -11 11.125 C-13 9 -13 9 -13 7 C-11.58957044 6.15615325 -10.17135868 5.32530504 -8.75 4.5 C-7.56664062 3.80390625 -7.56664062 3.80390625 -6.359375 3.09375 C-4 2 -4 2 0 2 C0 1.34 0 0.68 0 0 Z " fill="#503B3E" transform="translate(75,58)"/>
<path d="M0 0 C1.59505208 1.00911458 3.19010417 2.01822917 4.78515625 3.02734375 C4.5859375 5.3828125 4.5859375 5.3828125 3.78515625 8.02734375 C1.640625 9.390625 1.640625 9.390625 -1.02734375 10.33984375 C-1.90003906 10.66597656 -2.77273437 10.99210937 -3.671875 11.328125 C-6.21484375 12.02734375 -6.21484375 12.02734375 -10.21484375 12.02734375 C-9.71984375 13.51234375 -9.71984375 13.51234375 -9.21484375 15.02734375 C-14.85915722 18.0094867 -18.78969662 19.84578162 -25.21484375 18.02734375 C-28.65234375 16.46484375 -28.65234375 16.46484375 -31.21484375 15.02734375 C-31.54484375 15.35734375 -31.87484375 15.68734375 -32.21484375 16.02734375 C-29.57484375 17.34734375 -26.93484375 18.66734375 -24.21484375 20.02734375 C-24.21484375 20.68734375 -24.21484375 21.34734375 -24.21484375 22.02734375 C-25.62812504 22.84571817 -27.04562721 23.65680594 -28.46484375 24.46484375 C-29.64820313 25.14353516 -29.64820313 25.14353516 -30.85546875 25.8359375 C-33.00317843 26.92045977 -34.86689436 27.55883091 -37.21484375 28.02734375 C-36.88484375 28.35734375 -36.55484375 28.68734375 -36.21484375 29.02734375 C-36.14170808 31.55783777 -36.12236848 34.06039212 -36.15234375 36.58984375 C-36.15685547 37.30076172 -36.16136719 38.01167969 -36.16601562 38.74414062 C-36.17783511 40.50524388 -36.19577112 42.26630411 -36.21484375 44.02734375 C-41.01394065 43.23992716 -44.09399318 41.53217449 -48.21484375 39.02734375 C-48.21484375 34.07734375 -48.21484375 29.12734375 -48.21484375 24.02734375 C-47.55484375 24.02734375 -46.89484375 24.02734375 -46.21484375 24.02734375 C-46.56271083 22.0519763 -46.56271083 22.0519763 -47.21484375 20.02734375 C-47.87484375 19.69734375 -48.53484375 19.36734375 -49.21484375 19.02734375 C-48.08691406 18.43308594 -46.95898438 17.83882812 -45.796875 17.2265625 C-45.04696289 16.83122314 -44.29705078 16.43588379 -43.52441406 16.02856445 C-41.84145065 15.14314931 -40.15717494 14.2602246 -38.47167969 13.37963867 C-33.79194987 10.93107273 -29.14082503 8.44332858 -24.5234375 5.87890625 C-23.59490967 5.37141846 -22.66638184 4.86393066 -21.7097168 4.34106445 C-19.91013121 3.35683856 -18.11822562 2.35840878 -16.33520508 1.34448242 C-10.38239061 -1.87993463 -6.48146666 -2.84635837 0 0 Z " fill="#5C5656" transform="translate(78.21484375,29.97265625)"/>
<path d="M0 0 C1.32 0 2.64 0 4 0 C4.33 1.32 4.66 2.64 5 4 C4.34 4 3.68 4 3 4 C3.33 8.95 3.66 13.9 4 19 C7.63 20.65 11.26 22.3 15 24 C15 19.38 15 14.76 15 10 C15.33 10 15.66 10 16 10 C16 26.83 16 43.66 16 61 C10.36125212 62.12774958 10.36125212 62.12774958 6.3125 59.6875 C5.54550781 59.23761719 4.77851563 58.78773437 3.98828125 58.32421875 C2 57 2 57 0 55 C-0.24050903 52.67147827 -0.24050903 52.67147827 -0.22705078 49.72412109 C-0.22689972 48.6231308 -0.22674866 47.5221405 -0.22659302 46.38778687 C-0.21627045 45.19505157 -0.20594788 44.00231628 -0.1953125 42.7734375 C-0.1924826 41.55548492 -0.18965271 40.33753235 -0.18673706 39.08267212 C-0.17551256 35.18001617 -0.15040372 31.27758697 -0.125 27.375 C-0.11497314 24.73437831 -0.10584678 22.09375303 -0.09765625 19.453125 C-0.07556581 12.9686722 -0.04206592 6.4843523 0 0 Z " fill="#566061" transform="translate(27,50)"/>
<path d="M0 0 C9.19973298 0.35113485 9.19973298 0.35113485 12.3125 2.875 C12.869375 3.57625 13.42625 4.2775 14 5 C17.30546023 7.28839555 20.01927772 8.43132539 24 9 C24.495 10.485 24.495 10.485 25 12 C24.67 12.33 24.34 12.66 24 13 C26.64 14.32 29.28 15.64 32 17 C30.7907307 20.62780791 29.20090824 21.51777659 25.88671875 23.265625 C22.85635434 24.44514572 21.07520485 23.98406555 18 23 C17.33226562 22.63261719 16.66453125 22.26523437 15.9765625 21.88671875 C11.39005417 19.36407158 11.39005417 19.36407158 6.3046875 19.59375 C3.79517727 20.61803989 1.40901146 21.7607071 -1 23 C-5.32778305 24.44259435 -8.72753627 23.3878241 -13 22 C-15.20560604 20.82098702 -17.00798133 19.53232205 -19 18 C-16.00880429 14.66366632 -13.12359889 12.75472293 -9 11 C-8.01 11 -7.02 11 -6 11 C-6 10.34 -6 9.68 -6 9 C-4.20963542 8.05598958 -2.41927083 7.11197917 -0.62890625 6.16796875 C1.32267987 5.00980201 1.32267987 5.00980201 2 2 C1.34 1.34 0.68 0.68 0 0 Z " fill="#374244" transform="translate(66,41)"/>
<path d="M0 0 C3.11974441 1.48290483 6.06846506 3.17593382 9 5 C6.22396179 7.89815132 3.80628542 9.56366588 0 11 C-2.78758543 10.95479591 -5.24238259 10.5229964 -8 10 C-8 10.66 -8 11.32 -8 12 C-5.525 12.99 -5.525 12.99 -3 14 C-3 18.62 -3 23.24 -3 28 C-8.93297223 27.0111713 -11.14316779 26.01123597 -16 23 C-16 18.05 -16 13.1 -16 8 C-11 9 -11 9 -9 10 C-9.66 9.38125 -10.32 8.7625 -11 8.125 C-13 6 -13 6 -13 4 C-5.26829268 -0.94829268 -5.26829268 -0.94829268 0 0 Z " fill="#EE7A36" transform="translate(75,61)"/>
<path d="M0 0 C2.96175123 0.61277612 4.38058783 1.25372522 7 3 C7.36076355 5.29055786 7.36076355 5.29055786 7.34057617 8.18408203 C7.34034958 9.26505157 7.34012299 10.34602112 7.33988953 11.45974731 C7.32440567 12.63060883 7.30892181 13.80147034 7.29296875 15.0078125 C7.28872391 16.20356903 7.28447906 17.39932556 7.28010559 18.63131714 C7.26326902 22.46277071 7.22560684 26.29370453 7.1875 30.125 C7.17245964 32.71744034 7.15877011 35.30988889 7.14648438 37.90234375 C7.11334918 44.26840748 7.0631003 50.63416662 7 57 C6.01 57.495 6.01 57.495 5 58 C4.67 52.06 4.34 46.12 4 40 C2.576875 40.495 1.15375 40.99 -0.3125 41.5 C-3.13135886 42.48047265 -4.98509443 43 -8 43 C-8.34029288 38.28631344 -8.53347835 33.70331937 -8 29 C-5.25 26.25 -5.25 26.25 -2 25 C1.14884038 23.66408514 1.14884038 23.66408514 3 21 C3.66 21 4.32 21 5 21 C5 15.72 5 10.44 5 5 C3.68 4.67 2.36 4.34 1 4 C0.67 2.68 0.34 1.36 0 0 Z " fill="#6E5695" transform="translate(112,49)"/>
<path d="M0 0 C0 5.28 0 10.56 0 16 C-4.95 17.485 -4.95 17.485 -10 19 C-10 19.66 -10 20.32 -10 21 C-10.99 21 -11.98 21 -13 21 C-13 16.05 -13 11.1 -13 6 C-2.25 0 -2.25 0 0 0 Z " fill="#E8E9EA" transform="translate(102,97)"/>
<path d="M0 0 C5.09641312 1.69880437 8.51562998 3.30937799 13 6 C13 10.95 13 15.9 13 21 C7.90358688 19.30119563 4.48437002 17.69062201 0 15 C0 10.05 0 5.1 0 0 Z " fill="#EBBB4B" transform="translate(59,87)"/>
<path d="M0 0 C3.70837682 0.9270942 5.79026832 2.07416099 9 4 C10.32 4.33 11.64 4.66 13 5 C13 9.95 13 14.9 13 20 C7.8213572 18.96427144 4.61459962 17.42462014 0 15 C0 10.05 0 5.1 0 0 Z " fill="#C56E43" transform="translate(59,105)"/>
<path d="M0 0 C0 4.95 0 9.9 0 15 C-8.625 20 -8.625 20 -12 20 C-12 15.05 -12 10.1 -12 5 C-3.375 0 -3.375 0 0 0 Z " fill="#F1F2F2" transform="translate(87,69)"/>
<path d="M0 0 C0 4.95 0 9.9 0 15 C-8.625 20 -8.625 20 -12 20 C-12.46283411 15.2495221 -12.71886227 10.73161582 -12 6 C-9.71227814 3.31532184 -7.28095098 2.17929764 -4 1 C-2 0 -2 0 0 0 Z " fill="#337AAB" transform="translate(116,90)"/>
<path d="M0 0 C4.7990969 0.78741659 7.87914943 2.49516926 12 5 C12 9.62 12 14.24 12 19 C3.31578947 17.55263158 3.31578947 17.55263158 0 14 C-0.52211828 9.29549678 -0.34030832 4.71390039 0 0 Z " fill="#CC4B7D" transform="translate(45,98)"/>
<path d="M0 0 C4.03127692 1.61251077 8.01479973 3.280894 12 5 C12 9.95 12 14.9 12 20 C6.85191212 18.97038242 4.37079462 17.65675751 0 15 C0 10.05 0 5.1 0 0 Z " fill="#F2F2F3" transform="translate(30,54)"/>
<path d="M0 0 C0.33 0.66 0.66 1.32 1 2 C1.928125 2.309375 2.85625 2.61875 3.8125 2.9375 C6.80735213 3.93578404 8.61830597 4.98472043 11 7 C10.67 7.99 10.34 8.98 10 10 C10.66 10.33 11.32 10.66 12 11 C10.37750059 11.83819158 8.75191503 12.6704116 7.125 13.5 C6.22007813 13.9640625 5.31515625 14.428125 4.3828125 14.90625 C2 16 2 16 0 16 C0 20.95 0 25.9 0 31 C0.66 31.33 1.32 31.66 2 32 C0.68 32 -0.64 32 -2 32 C-2 37.94 -2 43.88 -2 50 C-2.33 50 -2.66 50 -3 50 C-2.93296875 48.98679688 -2.8659375 47.97359375 -2.796875 46.9296875 C-2.68754466 42.68798728 -2.87526296 39.12403583 -4 35 C-7.64551173 31.89533452 -11.44538204 30.38081178 -16 29 C-15.01 28.34 -14.02 27.68 -13 27 C-10.51953125 27.6796875 -10.51953125 27.6796875 -7.8125 28.875 C-6.91144531 29.26429687 -6.01039062 29.65359375 -5.08203125 30.0546875 C-4.39496094 30.36664063 -3.70789063 30.67859375 -3 31 C-3.05985379 28.70759993 -3.14859027 26.41593794 -3.25 24.125 C-3.29640625 22.84882812 -3.3428125 21.57265625 -3.390625 20.2578125 C-3.62555056 16.90811895 -3.62555056 16.90811895 -6.046875 15.5546875 C-7.01367188 15.28011719 -7.01367188 15.28011719 -8 15 C-8 14.34 -8 13.68 -8 13 C-6.2675 13.12375 -6.2675 13.12375 -4.5 13.25 C0.39304621 13.28495033 3.86849494 11.46132216 8 9 C4.37464179 5.82781157 0.48849722 4.57097403 -4 3 C-2.68 2.67 -1.36 2.34 0 2 C0 1.34 0 0.68 0 0 Z " fill="#666657" transform="translate(75,58)"/>
<path d="M0 0 C6 2 6 2 12 5 C12 9.95 12 14.9 12 20 C2.25 16.125 2.25 16.125 0 15 C0 10.05 0 5.1 0 0 Z " fill="#F4D241" transform="translate(30,90)"/>
<path d="M0 0 C0 4.95 0 9.9 0 15 C-8.625 19 -8.625 19 -12 19 C-12 14.38 -12 9.76 -12 5 C-3.375 0 -3.375 0 0 0 Z " fill="#E27738" transform="translate(116,55)"/>
<path d="M0 0 C0 4.95 0 9.9 0 15 C-7.625 19 -7.625 19 -11 19 C-12.21919326 6.48633584 -12.21919326 6.48633584 -9.32421875 2.95703125 C-6.07633206 0.9322975 -3.85531954 0 0 0 Z " fill="#E5B64F" transform="translate(101,80)"/>
<path d="M0 0 C3.53209629 0.48921001 5.79314067 0.87408563 8.875 2.75 C12.20744639 7.84668272 11.3901713 13.07806667 11 19 C9.35303396 18.5247412 7.70745272 18.04468109 6.0625 17.5625 C5.14597656 17.29566406 4.22945312 17.02882813 3.28515625 16.75390625 C1 16 1 16 0 15 C-0.07313567 12.46950598 -0.09247527 9.96695163 -0.0625 7.4375 C-0.05798828 6.72658203 -0.05347656 6.01566406 -0.04882812 5.28320312 C-0.03700864 3.52209987 -0.01907263 1.76103964 0 0 Z " fill="#3780B5" transform="translate(45,80)"/>
<path d="M0 0 C4.38762753 1.09690688 7.14499723 2.70182527 11 5 C11 9.62 11 14.24 11 19 C6 18 6 18 0 15 C0 10.05 0 5.1 0 0 Z " fill="#586EA8" transform="translate(45,62)"/>
<path d="M0 0 C0 5.28 0 10.56 0 16 C-0.33 16 -0.66 16 -1 16 C-1 11.05 -1 6.1 -1 1 C-6.445 3.475 -6.445 3.475 -12 6 C-12.33 10.62 -12.66 15.24 -13 20 C-11.55625 19.34 -10.1125 18.68 -8.625 18 C-4.25 16 -4.25 16 -2 16 C-3.39655297 19.49873271 -4.71260484 20.70891831 -8.125 22.25 C-8.84945312 22.58515625 -9.57390625 22.9203125 -10.3203125 23.265625 C-11.15175781 23.62914062 -11.15175781 23.62914062 -12 24 C-12.03738281 25.20398438 -12.07476562 26.40796875 -12.11328125 27.6484375 C-12.17892928 29.22399011 -12.24537701 30.79950954 -12.3125 32.375 C-12.33505859 33.1690625 -12.35761719 33.963125 -12.38085938 34.78125 C-12.47785075 36.86215581 -12.72994825 38.93441332 -13 41 C-13.99 41.66 -14.98 42.32 -16 43 C-15.505 34.09 -15.505 34.09 -15 25 C-15.99 24.67 -16.98 24.34 -18 24 C-17.01 23.67 -16.02 23.34 -15 23 C-15 17.72 -15 12.44 -15 7 C-15.99 6.67 -16.98 6.34 -18 6 C-16.37861617 2.75723234 -13.24889406 2.31095725 -10 1 C-8 0 -8 0 0 0 Z " fill="#59443B" transform="translate(117,54)"/>
<path d="M0 0 C0.46634632 4.42381296 0.70926625 8.59508332 0 13 C-2.26133077 15.66721066 -4.68069342 16.96549336 -8 18 C-8.99 18 -9.98 18 -11 18 C-11 13.05 -11 8.1 -11 3 C-4.25 -0.375 -4.25 -0.375 0 0 Z " fill="#219387" transform="translate(86,89)"/>
<path d="M0 0 C2.375 1.0625 2.375 1.0625 4 3 C4.57491549 6.95254396 4.61372366 9.07941451 2.375 12.4375 C-0.69817115 14.45932313 -2.38247881 14.52755517 -6 14 C-8.375 13 -8.375 13 -10 11 C-10.56641498 8.22572253 -10.56641498 5.77427747 -10 3 C-7.19663749 -0.45029232 -4.26211439 -0.5327643 0 0 Z " fill="#4A8AB0" transform="translate(118,21)"/>
<path d="M0 0 C0 4.62 0 9.24 0 14 C-7.625 18 -7.625 18 -11 18 C-11 13.38 -11 8.76 -11 4 C-4.5 0 -4.5 0 0 0 Z " fill="#BE4D7B" transform="translate(101,63)"/>
<path d="M0 0 C0.46634632 4.42381296 0.70926625 8.59508332 0 13 C-2.26133077 15.66721066 -4.68069342 16.96549336 -8 18 C-8.99 18 -9.98 18 -11 18 C-11.08097324 15.72975032 -11.13917704 13.45867925 -11.1875 11.1875 C-11.22230469 9.92292969 -11.25710937 8.65835938 -11.29296875 7.35546875 C-11 4 -11 4 -9.67578125 2.11328125 C-6.4795482 -0.01009036 -3.71794102 -0.10048489 0 0 Z " fill="#1D9488" transform="translate(86,107)"/>
<path d="M0 0 C0.66 0.33 1.32 0.66 2 1 C2 12.88 2 24.76 2 37 C2.66 37.33 3.32 37.66 4 38 C1.03 39.32 -1.94 40.64 -5 42 C-5.66 41.34 -6.32 40.68 -7 40 C-5.2984375 39.4121875 -5.2984375 39.4121875 -3.5625 38.8125 C-1.52538269 37.83276369 -1.52538269 37.83276369 0 36 C0.94307346 31.66507712 1.04477291 27.42612188 1 23 C-2.96 23.495 -2.96 23.495 -7 24 C-7.33 24.99 -7.66 25.98 -8 27 C-8.66 27 -9.32 27 -10 27 C-10 31.62 -10 36.24 -10 41 C-9.34 41.33 -8.68 41.66 -8 42 C-8.99 42 -9.98 42 -11 42 C-11 31.11 -11 20.22 -11 9 C-10.67 9 -10.34 9 -10 9 C-10 13.62 -10 18.24 -10 23 C-4.55639248 21.18609877 -4.55639248 21.18609877 0 18 C1.20017284 13.63285124 1.22424946 9.50477584 1 5 C0.05125 5.20625 -0.8975 5.4125 -1.875 5.625 C-2.90625 5.74875 -3.9375 5.8725 -5 6 C-5.66 5.34 -6.32 4.68 -7 4 C-1.7265625 0.77734375 -1.7265625 0.77734375 0 0 Z " fill="#246260" transform="translate(85,84)"/>
<path d="M0 0 C2.96175123 0.61277612 4.38058783 1.25372522 7 3 C7.36076355 5.29055786 7.36076355 5.29055786 7.34057617 8.18408203 C7.34034958 9.26505157 7.34012299 10.34602112 7.33988953 11.45974731 C7.32440567 12.63060883 7.30892181 13.80147034 7.29296875 15.0078125 C7.28872391 16.20356903 7.28447906 17.39932556 7.28010559 18.63131714 C7.26326902 22.46277071 7.22560684 26.29370453 7.1875 30.125 C7.17245964 32.71744034 7.15877011 35.30988889 7.14648438 37.90234375 C7.11334918 44.26840748 7.0631003 50.63416662 7 57 C6.01 57.495 6.01 57.495 5 58 C4.67 52.06 4.34 46.12 4 40 C1.525 40.495 1.525 40.495 -1 41 C0 39 0 39 3 38 C3.33 33.38 3.66 28.76 4 24 C3.34 23.67 2.68 23.34 2 23 C2.33 22.34 2.66 21.68 3 21 C3.66 21 4.32 21 5 21 C5 15.72 5 10.44 5 5 C3.68 4.67 2.36 4.34 1 4 C0.67 2.68 0.34 1.36 0 0 Z " fill="#5E616C" transform="translate(112,49)"/>
<path d="M0 0 C2.7059424 1.26412694 5.36498774 2.59422423 8 4 C6.79147877 7.62556369 5.20352442 8.51340866 1.89453125 10.265625 C-1.12549076 11.43627271 -2.95989542 11.01336819 -6 10 C-8.4277386 8.7763018 -10.68395401 7.43594851 -13 6 C-13 5.01 -13 4.02 -13 3 C-4.61694571 -1.84677829 -4.61694571 -1.84677829 0 0 Z " fill="#EDEEEE" transform="translate(90,54)"/>
<path d="M0 0 C3.11974441 1.48290483 6.06846506 3.17593382 9 5 C5.61647526 8.57372288 2.14704902 10.85997506 -2.875 11.1875 C-3.57625 11.125625 -4.2775 11.06375 -5 11 C-5 10.34 -5 9.68 -5 9 C-6.134375 8.731875 -7.26875 8.46375 -8.4375 8.1875 C-9.613125 7.795625 -10.78875 7.40375 -12 7 C-12.33 6.01 -12.66 5.02 -13 4 C-5.26829268 -0.94829268 -5.26829268 -0.94829268 0 0 Z " fill="#EFCC40" transform="translate(75,61)"/>
<path d="M0 0 C2.84192084 1.42360653 5.53739087 2.98347143 8 5 C8 5.66 8 6.32 8 7 C4.88778451 9.58086162 2.63303645 10.89449392 -1.375 11.5625 C-6.09738561 10.82971603 -9.18410021 8.77519984 -13 6 C-9.11562542 1.83817009 -5.90862493 -0.94000851 0 0 Z " fill="#5C6AA4" transform="translate(60,53)"/>
<path d="M0 0 C2.42645774 1.22553342 4.68423995 2.56422877 7 4 C6 7 6 7 3.375 8.75 C-0.73493389 10.27219774 -2.77759203 10.11115999 -7 9 C-9.46331687 7.80683089 -11.67932468 6.46818234 -14 5 C-14 4.34 -14 3.68 -14 3 C-5.66560417 -1.92871631 -5.66560417 -1.92871631 0 0 Z " fill="#EFEFF0" transform="translate(105,47)"/>
<path d="M0 0 C2.23828125 0.97265625 2.23828125 0.97265625 4.3125 2.0625 C5.00988281 2.42472656 5.70726563 2.78695312 6.42578125 3.16015625 C7.20501953 3.57587891 7.20501953 3.57587891 8 4 C8 4.66 8 5.32 8 6 C2.35568653 8.98214295 -1.57485287 10.81843787 -8 9 C-11.4375 7.4375 -11.4375 7.4375 -14 6 C-14 5.34 -14 4.68 -14 4 C-12.61518672 3.12808053 -11.21654754 2.27809616 -9.8125 1.4375 C-8.64654297 0.72400391 -8.64654297 0.72400391 -7.45703125 -0.00390625 C-4.4327755 -1.22995588 -3.08012466 -0.97472299 0 0 Z " fill="#B94D77" transform="translate(61,39)"/>
<path d="M0 0 C1.98230448 0.98068232 3.92139654 2.00474464 5.84375 3.09765625 C5.84375 3.75765625 5.84375 4.41765625 5.84375 5.09765625 C-1.90346814 10.0730919 -1.90346814 10.0730919 -6.34375 10.16015625 C-9.6653743 8.9053204 -12.30582234 7.20154333 -15.15625 5.09765625 C-14.15625 2.09765625 -14.15625 2.09765625 -11.46875 0.41015625 C-7.20349834 -1.27984912 -4.32000434 -1.8078279 0 0 Z " fill="#DB783A" transform="translate(48.15625,46.90234375)"/>
<path d="M0 0 C1.43362072 0.65140796 2.85101812 1.3396927 4.25 2.0625 C4.95640625 2.42472656 5.6628125 2.78695312 6.390625 3.16015625 C6.92171875 3.43730469 7.4528125 3.71445312 8 4 C8 4.66 8 5.32 8 6 C0.24479683 10.96333003 0.24479683 10.96333003 -5 10 C-7.81064439 8.52581447 -10.41457603 6.83735714 -13 5 C-9.25912779 1.04821808 -5.47320883 -1.86563239 0 0 Z " fill="#DD7439" transform="translate(89,39)"/>
<path d="M0 0 C1.5625 1.625 1.5625 1.625 1.5625 4.625 C-4.02076712 7.59482294 -8.24977481 8.21989816 -14.4375 6.625 C-15.4275 5.965 -16.4175 5.305 -17.4375 4.625 C-17.1075 2.975 -16.7775 1.325 -16.4375 -0.375 C-10.55477665 -2.41594483 -5.73006377 -3.23234367 0 0 Z " fill="#2A809E" transform="translate(80.4375,48.375)"/>
<path d="M0 0 C1.47968324 0.14049518 2.95874516 0.28754826 4.4375 0.4375 C5.67306641 0.55931641 5.67306641 0.55931641 6.93359375 0.68359375 C9 1 9 1 10 2 C10.07271741 4.35313555 10.08370868 6.70833668 10.0625 9.0625 C10.05347656 10.35285156 10.04445313 11.64320312 10.03515625 12.97265625 C10.02355469 13.97167969 10.01195312 14.97070312 10 16 C6.05852674 15.43693239 3.0986979 14.56122464 0 12 C-0.48828125 9.08203125 -0.48828125 9.08203125 -0.3125 5.8125 C-0.26738281 4.72582031 -0.22226562 3.63914062 -0.17578125 2.51953125 C-0.11777344 1.68808594 -0.05976563 0.85664062 0 0 Z " fill="#69A84D" transform="translate(32,76)"/>
<path d="M0 0 C-2.48089866 3.72134798 -4.31482511 4.3908205 -8.47265625 5.69140625 C-12.83505228 6.22406357 -16.49816442 4.54821071 -20 2 C-20.33 1.01 -20.66 0.02 -21 -1 C-12.93373229 -4.53783672 -7.88643827 -4.42409952 0 0 Z " fill="#F1F2F2" transform="translate(83,36)"/>
<path d="M0 0 C0.66 0 1.32 0 2 0 C2 11.22 2 22.44 2 34 C-3.64951497 35.12990299 -3.64951497 35.12990299 -7.75 32.6875 C-8.52859375 32.23761719 -9.3071875 31.78773437 -10.109375 31.32421875 C-12 30 -12 30 -13 28 C-12.93633263 25.50250273 -12.81225969 23.05071308 -12.625 20.5625 C-12.58117187 19.88123047 -12.53734375 19.19996094 -12.4921875 18.49804688 C-12.27875659 15.47147803 -11.96382381 12.89147144 -11 10 C-6.96479403 11.58962659 -2.98188718 13.28232318 1 15 C0.67 10.05 0.34 5.1 0 0 Z M-11 13 C-11 17.95 -11 22.9 -11 28 C-9.205625 28.825 -7.41125 29.65 -5.5625 30.5 C-4.04849609 31.19609375 -4.04849609 31.19609375 -2.50390625 31.90625 C-0.30266354 33.06671563 -0.30266354 33.06671563 1 33 C1 28.05 1 23.1 1 18 C-0.60875 17.175 -2.2175 16.35 -3.875 15.5 C-4.77992187 15.0359375 -5.68484375 14.571875 -6.6171875 14.09375 C-8.86596859 12.86094411 -8.86596859 12.86094411 -11 13 Z " fill="#656142" transform="translate(41,77)"/>
<path d="M0 0 C2.44967835 1.21275989 4.68245407 2.53379748 7 4 C7 4.99 7 5.98 7 7 C6.154375 6.690625 5.30875 6.38125 4.4375 6.0625 C-2.50678859 3.91608353 -7.14863731 3.95661113 -14 6 C-11.74259377 8.33524782 -9.7194239 10.18705073 -7 12 C-9.4667645 12.88336837 -10.63859372 13.1312406 -13.140625 12.22265625 C-13.83671875 11.83980469 -14.5328125 11.45695312 -15.25 11.0625 C-15.95640625 10.68222656 -16.6628125 10.30195312 -17.390625 9.91015625 C-17.92171875 9.60980469 -18.4528125 9.30945312 -19 9 C-18.8203125 7.20703125 -18.8203125 7.20703125 -18 5 C-12.50073168 0.76613425 -6.87568349 -2.38004429 0 0 Z " fill="#4C4C58" transform="translate(76,29)"/>
<path d="M0 0 C3.79993558 0.37999356 6.61739282 0.79275444 10 2.625 C15.48790225 5.14028853 20.57536054 2.98462419 26 1 C23.6875 3.5 23.6875 3.5 21 6 C20.01 6 19.02 6 18 6 C18 6.66 18 7.32 18 8 C14.04 9.98 10.08 11.96 6 14 C6 14.66 6 15.32 6 16 C5.01 15.67 4.02 15.34 3 15 C2.01 15.33 1.02 15.66 0 16 C-0.66 15.01 -1.32 14.02 -2 13 C-0.700625 12.5978125 -0.700625 12.5978125 0.625 12.1875 C4.03792202 11.06567182 4.03792202 11.06567182 7.25 9.375 C10 8 10 8 12 8 C12 7.34 12 6.68 12 6 C10.700625 5.5978125 10.700625 5.5978125 9.375 5.1875 C6.08208036 4.02888013 3.08872125 2.61790161 0 1 C0 0.67 0 0.34 0 0 Z " fill="#4C3E45" transform="translate(42,44)"/>
<path d="M0 0 C5 1 5 1 7 2 C7 1.34 7 0.68 7 0 C8.32 0.66 9.64 1.32 11 2 C10.01 2 9.02 2 8 2 C8 2.66 8 3.32 8 4 C10.475 4.99 10.475 4.99 13 6 C13 10.62 13 15.24 13 20 C11.02 19.67 9.04 19.34 7 19 C6.67 18.34 6.34 17.68 6 17 C7.65 17 9.3 17 11 17 C11 13.37 11 9.74 11 6 C10.05125 5.690625 9.1025 5.38125 8.125 5.0625 C5 4 5 4 3 3 C2.94589313 4.77049689 2.90715881 6.54146849 2.875 8.3125 C2.84019531 9.79169922 2.84019531 9.79169922 2.8046875 11.30078125 C2.79317361 14.22406527 2.79317361 14.22406527 5 17 C2.525 16.01 2.525 16.01 0 15 C0 10.05 0 5.1 0 0 Z " fill="#B16D47" transform="translate(59,69)"/>
<path d="M0 0 C0.33 0 0.66 0 1 0 C0.99097656 0.96421875 0.98195313 1.9284375 0.97265625 2.921875 C0.80756236 9.75188761 0.80756236 9.75188761 3.4140625 15.75 C5.26394761 16.79310703 6.95516981 17.43476239 9 18 C10.134375 18.4125 11.26875 18.825 12.4375 19.25 C13.283125 19.4975 14.12875 19.745 15 20 C15 20.66 15 21.32 15 22 C15.9075 22.268125 16.815 22.53625 17.75 22.8125 C20.72991834 23.90131632 22.68590359 24.86391101 25 27 C25 27.66 25 28.32 25 29 C20.89306101 27.72287446 17.18406415 26.18709006 13.3828125 24.1796875 C11.85527344 23.37724609 11.85527344 23.37724609 10.296875 22.55859375 C9.25015625 22.00300781 8.2034375 21.44742188 7.125 20.875 C6.05507813 20.31167969 4.98515625 19.74835938 3.8828125 19.16796875 C1.25305983 17.78265261 -1.37443083 16.39322404 -4 15 C-2.68 14.67 -1.36 14.34 0 14 C0 9.38 0 4.76 0 0 Z " fill="#5F4D5E" transform="translate(44,98)"/>
<path d="M0 0 C3.73487777 0.4979837 5.81237635 0.87491756 9 3 C9.29296875 5.3828125 9.29296875 5.3828125 9.1875 8.125 C9.16042969 9.03507812 9.13335937 9.94515625 9.10546875 10.8828125 C9.07066406 11.58148438 9.03585938 12.28015625 9 13 C7.35 13 5.7 13 4 13 C4 12.34 4 11.68 4 11 C3.01 11 2.02 11 1 11 C-0.17571451 7.32589215 -0.07366746 3.83070817 0 0 Z " fill="#ED7833" transform="translate(61,109)"/>
<path d="M0 0 C-1.22976562 0.50466797 -1.22976562 0.50466797 -2.484375 1.01953125 C-5.38606738 2.82959166 -5.38606738 2.82959166 -5.453125 6.44921875 C-5.40865791 7.86290156 -5.33941252 9.27594702 -5.25 10.6875 C-5.19851413 12.21078864 -5.15176326 13.73424356 -5.109375 15.2578125 C-5.07166992 16.42812012 -5.07166992 16.42812012 -5.03320312 17.62207031 C-4.97976285 21.44933731 -5.22802037 25.24655653 -5.5 29.0625 C-5.54801758 29.75883545 -5.59603516 30.4551709 -5.64550781 31.17260742 C-5.7589972 32.78207473 -5.87873699 34.39109971 -6 36 C-3.03 35.505 -3.03 35.505 0 35 C-1 36.5 -1 36.5 -3 38 C-5.71846235 38.27345479 -8.25677199 38.13491285 -11 38 C-11.495 36.515 -11.495 36.515 -12 35 C-10.68 35 -9.36 35 -8 35 C-8.01160156 33.98164062 -8.02320312 32.96328125 -8.03515625 31.9140625 C-8.11663552 21.2390044 -7.69761657 10.65111011 -7 0 C-3.98968256 -0.93423645 -3.13349732 -1.04449911 0 0 Z " fill="#2D4042" transform="translate(80,90)"/>
<path d="M0 0 C0.33 0 0.66 0 1 0 C1 5.28 1 10.56 1 16 C-1.98594424 17.49297212 -4.70853624 17.11755228 -8 17 C-8.66 16.67 -9.32 16.34 -10 16 C-10 19.63 -10 23.26 -10 27 C-10.66 27 -11.32 27 -12 27 C-12 22.05 -12 17.1 -12 12 C-6.08514363 10.81702873 -5.11148947 11.49436791 0 14 C0 9.38 0 4.76 0 0 Z " fill="#699B56" transform="translate(42,60)"/>
<path d="M0 0 C0.66 0 1.32 0 2 0 C2 11.22 2 22.44 2 34 C1.01 33.67 0.02 33.34 -1 33 C-0.34 33 0.32 33 1 33 C0.93976506 30.91587093 0.85091679 28.83255565 0.75 26.75 C0.70359375 25.58984375 0.6571875 24.4296875 0.609375 23.234375 C-0.11133633 19.40906103 -0.88518844 18.27862054 -4 16 C-5.98 15.34 -7.96 14.68 -10 14 C-10 18.62 -10 23.24 -10 28 C-10.33 28 -10.66 28 -11 28 C-11.02691685 25.54159395 -11.04679802 23.08348118 -11.0625 20.625 C-11.07087891 19.92632812 -11.07925781 19.22765625 -11.08789062 18.5078125 C-11.11328125 13.2265625 -11.11328125 13.2265625 -10 11 C-6.2627488 12.21677946 -2.6558378 13.53766488 1 15 C0.67 10.05 0.34 5.1 0 0 Z " fill="#375878" transform="translate(55,66)"/>
<path d="M0 0 C1.77503906 0.71349609 1.77503906 0.71349609 3.5859375 1.44140625 C4.77445313 1.91449219 5.96296875 2.38757812 7.1875 2.875 C8.10273437 3.24753906 9.01796875 3.62007812 9.9609375 4.00390625 C8.6409375 4.33390625 7.3209375 4.66390625 5.9609375 5.00390625 C5.9609375 5.66390625 5.9609375 6.32390625 5.9609375 7.00390625 C6.6209375 7.33390625 7.2809375 7.66390625 7.9609375 8.00390625 C7.9609375 13.28390625 7.9609375 18.56390625 7.9609375 24.00390625 C7.6309375 24.00390625 7.3009375 24.00390625 6.9609375 24.00390625 C6.9609375 19.38390625 6.9609375 14.76390625 6.9609375 10.00390625 C2.5059375 11.48890625 2.5059375 11.48890625 -2.0390625 13.00390625 C-2.6990625 12.34390625 -3.3590625 11.68390625 -4.0390625 11.00390625 C-2.24869792 10.02734375 -0.45833333 9.05078125 1.33203125 8.07421875 C3.12712065 7.08980601 3.12712065 7.08980601 3.9609375 5.00390625 C3.0328125 4.73578125 2.1046875 4.46765625 1.1484375 4.19140625 C-1.80146616 3.09242254 -3.09521436 2.37972064 -5.0390625 0.00390625 C-3.0390625 -0.99609375 -3.0390625 -0.99609375 0 0 Z " fill="#68465B" transform="translate(94.0390625,52.99609375)"/>
<path d="M0 0 C5.14808788 1.02961758 7.62920538 2.34324249 12 5 C12 9.62 12 14.24 12 19 C10.02 18.67 8.04 18.34 6 18 C6 17.67 6 17.34 6 17 C7.65 17 9.3 17 11 17 C10.34 13.37 9.68 9.74 9 6 C7.35 5.67 5.7 5.34 4 5 C3.01 7.97 2.02 10.94 1 14 C0.67 14 0.34 14 0 14 C0 9.38 0 4.76 0 0 Z " fill="#B04D76" transform="translate(45,98)"/>
<path d="M0 0 C0.66 0 1.32 0 2 0 C2.06058594 1.04800781 2.12117188 2.09601563 2.18359375 3.17578125 C2.26801738 4.55470048 2.35266447 5.93360605 2.4375 7.3125 C2.47681641 8.00279297 2.51613281 8.69308594 2.55664062 9.40429688 C2.74927415 12.47161535 3.02322717 15.06968152 4 18 C3.91255992 20.5808926 3.77131505 23.11691478 3.5625 25.6875 C3.51029297 26.38939453 3.45808594 27.09128906 3.40429688 27.81445312 C3.27492135 29.54338054 3.13817469 31.27175355 3 33 C5.475 32.505 5.475 32.505 8 32 C7.67 32.99 7.34 33.98 7 35 C4.03 35.495 4.03 35.495 1 36 C0.67 24.12 0.34 12.24 0 0 Z " fill="#2E444A" transform="translate(86,85)"/>
<path d="M0 0 C9.19973298 0.35113485 9.19973298 0.35113485 12.3125 2.875 C12.869375 3.57625 13.42625 4.2775 14 5 C17.30546023 7.28839555 20.01927772 8.43132539 24 9 C24.33 9.99 24.66 10.98 25 12 C22.69 12 20.38 12 18 12 C17.67 11.01 17.34 10.02 17 9 C11.15154728 5.5158154 6.58576258 5.9001644 0 7 C0.66 5.35 1.32 3.7 2 2 C1.34 1.34 0.68 0.68 0 0 Z " fill="#3B414B" transform="translate(66,41)"/>
<path d="M0 0 C2.5625 0.1875 2.5625 0.1875 4.5625 2.1875 C4.75 5.25 4.75 5.25 4.5625 8.1875 C3.5625 9.1875 3.5625 9.1875 0.0625 9.3125 C-3.4375 9.1875 -3.4375 9.1875 -4.4375 8.1875 C-3.58985457 0.27614266 -3.58985457 0.27614266 0 0 Z " fill="#E7793B" transform="translate(44.4375,130.8125)"/>
<path d="M0 0 C-3.87748861 3.22081715 -8.30176221 5.37485896 -12.75 7.6875 C-13.54277344 8.10322266 -14.33554688 8.51894531 -15.15234375 8.94726562 C-17.09994207 9.96799486 -19.04917449 10.9854562 -21 12 C-21.33 11.34 -21.66 10.68 -22 10 C-22.66 9.67 -23.32 9.34 -24 9 C-23.28972656 8.73445313 -22.57945313 8.46890625 -21.84765625 8.1953125 C-20.92855469 7.84210938 -20.00945312 7.48890625 -19.0625 7.125 C-17.68771484 6.60292969 -17.68771484 6.60292969 -16.28515625 6.0703125 C-13.85058944 5.2180914 -13.85058944 5.2180914 -13 3 C-8.41352057 0.6617948 -5.23490729 -0.383042 0 0 Z " fill="#3C4C5D" transform="translate(116,107)"/>
<path d="M0 0 C0.33 0 0.66 0 1 0 C1.61152797 10.75634013 2.12448832 21.45136069 1.9375 32.2265625 C1.80162394 34.95903878 1.80162394 34.95903878 3 37 C2.34 37 1.68 37 1 37 C1 42.28 1 47.56 1 53 C-0.32 52.67 -1.64 52.34 -3 52 C-2.01 52 -1.02 52 0 52 C0 40.78 0 29.56 0 18 C-0.66 17.67 -1.32 17.34 -2 17 C-1.34 17 -0.68 17 0 17 C0 11.39 0 5.78 0 0 Z " fill="#303843" transform="translate(43,59)"/>
<path d="M0 0 C0.33 0 0.66 0 1 0 C1 4.62 1 9.24 1 14 C2.2375 13.29875 3.475 12.5975 4.75 11.875 C6.859375 10.6796875 6.859375 10.6796875 9 10 C10.32 10.66 11.64 11.32 13 12 C13 17.28 13 22.56 13 28 C12.67 28 12.34 28 12 28 C12 23.05 12 18.1 12 13 C6.555 15.475 6.555 15.475 1 18 C-0.59412284 14.81175432 -0.10174735 11.37103338 -0.0625 7.875 C-0.05798828 7.12089844 -0.05347656 6.36679688 -0.04882812 5.58984375 C-0.03703499 3.72652873 -0.01909942 1.86325445 0 0 Z " fill="#764F4C" transform="translate(89,67)"/>
<path d="M0 0 C0.66 0 1.32 0 2 0 C2 0.99 2 1.98 2 3 C2.99 3.33 3.98 3.66 5 4 C4.34 4.66 3.68 5.32 3 6 C4.32 6.33 5.64 6.66 7 7 C7 7.99 7 8.98 7 10 C4.09399739 11.25664978 2.20395416 12 -1 12 C-1.02698189 10.37509046 -1.04638757 8.75005367 -1.0625 7.125 C-1.07410156 6.22007813 -1.08570312 5.31515625 -1.09765625 4.3828125 C-1 2 -1 2 0 0 Z " fill="#CF4D7E" transform="translate(92,67)"/>
<path d="M0 0 C0 4.95 0 9.9 0 15 C-4.455 16.485 -4.455 16.485 -9 18 C-9 17.34 -9 16.68 -9 16 C-6 14 -6 14 -2 14 C-2.33 10.37 -2.66 6.74 -3 3 C-4.65 3.33 -6.3 3.66 -8 4 C-5.29881977 1.17603885 -4.05589853 0 0 0 Z " fill="#BB6F41" transform="translate(116,55)"/>
<path d="M0 0 C0.66 0 1.32 0 2 0 C2 5.94 2 11.88 2 18 C-1.85006136 17.22998773 -4.00776573 16.6738858 -7.3125 14.9375 C-8.00988281 14.57527344 -8.70726562 14.21304688 -9.42578125 13.83984375 C-9.94527344 13.56269531 -10.46476562 13.28554687 -11 13 C-11 12.01 -11 11.02 -11 10 C-6.96479403 11.58962659 -2.98188718 13.28232318 1 15 C0.67 10.05 0.34 5.1 0 0 Z " fill="#475835" transform="translate(41,77)"/>
<path d="M0 0 C0.33 0.66 0.66 1.32 1 2 C2.66041075 2.36321485 4.32943851 2.68676972 6 3 C9.02038297 3.94102384 12.01081907 4.9645321 15 6 C15 6.33 15 6.66 15 7 C8.59310057 8.60172486 5.68218551 7.28968635 0 4 C0 8.62 0 13.24 0 18 C-0.33 18 -0.66 18 -1 18 C-1.02684312 15.18743719 -1.04676188 12.37512759 -1.0625 9.5625 C-1.07087891 8.76005859 -1.07925781 7.95761719 -1.08789062 7.13085938 C-1.0965143 5.08704779 -1.0522815 3.04316098 -1 1 C-0.67 0.67 -0.34 0.34 0 0 Z " fill="#384464" transform="translate(45,58)"/>
<path d="M0 0 C0 0.99 0 1.98 0 3 C-0.99 3.495 -0.99 3.495 -2 4 C-1.67 4.99 -1.34 5.98 -1 7 C2.50294871 8.71567661 2.50294871 8.71567661 6 10 C5.67 10.99 5.34 11.98 5 13 C1.59687262 11.94124926 -1.01353231 10.99097846 -4 9 C-4.36442233 7.33985384 -4.69972883 5.67293936 -5 4 C-5.66 3.67 -6.32 3.34 -7 3 C-2.25 0 -2.25 0 0 0 Z " fill="#65564E" transform="translate(36,46)"/>
<path d="M0 0 C2.47345814 1.17920679 4.67652474 2.53004627 7 4 C7 4.99 7 5.98 7 7 C5.7315625 6.5359375 5.7315625 6.5359375 4.4375 6.0625 C0.95019263 4.98460499 -2.3897692 4.48599261 -6 4 C-6.66 3.67 -7.32 3.34 -8 3 C-7.67 2.67 -7.34 2.34 -7 2 C-7.66 1.34 -8.32 0.68 -9 0 C-5.80798943 -1.59600529 -3.43407157 -0.73185132 0 0 Z " fill="#6C7177" transform="translate(76,29)"/>
<path d="M0 0 C0.598125 0.20625 1.19625 0.4125 1.8125 0.625 C1.4825 0.955 1.1525 1.285 0.8125 1.625 C0.60918139 5.23578783 0.46544885 8.83973801 0.3828125 12.45507812 C0.2983652 14.51875904 0.06436231 16.57500594 -0.1875 18.625 C-1.1775 19.285 -2.1675 19.945 -3.1875 20.625 C-2.6925 11.715 -2.6925 11.715 -2.1875 2.625 C-3.1775 2.295 -4.1675 1.965 -5.1875 1.625 C-2.1875 -0.375 -2.1875 -0.375 0 0 Z " fill="#443A43" transform="translate(104.1875,76.375)"/>
<path d="M0 0 C1.8172331 0.58977747 3.62872043 1.19728453 5.4375 1.8125 C6.44683594 2.14894531 7.45617187 2.48539062 8.49609375 2.83203125 C9.32238281 3.21746094 10.14867188 3.60289063 11 4 C12.25433458 7.76300374 12.10695422 11.27210909 12.0625 15.1875 C12.05798828 15.93708984 12.05347656 16.68667969 12.04882812 17.45898438 C12.03706354 19.30602383 12.01912865 21.15302213 12 23 C11.67 23 11.34 23 11 23 C11.06703125 21.98679687 11.1340625 20.97359375 11.203125 19.9296875 C11.31245534 15.68798728 11.12473704 12.12403583 10 8 C6.35448827 4.89533452 2.55461796 3.38081178 -2 2 C-1.34 1.34 -0.68 0.68 0 0 Z " fill="#5E4C30" transform="translate(61,85)"/>
<path d="M0 0 C3.375 1.5 3.375 1.5 6 3 C6 3.33 6 3.66 6 4 C4.35 4 2.7 4 1 4 C1 3.34 1 2.68 1 2 C-2.3 2.33 -5.6 2.66 -9 3 C-8.0022242 5.99332739 -7.2477975 6.94766315 -5 9 C-8.4375 8.1875 -8.4375 8.1875 -12 7 C-12.33 6.01 -12.66 5.02 -13 4 C-5.47572816 -0.81553398 -5.47572816 -0.81553398 0 0 Z " fill="#D0B54C" transform="translate(75,61)"/>
<path d="M0 0 C4 1 4 1 6 3 C4.68 3 3.36 3 2 3 C2.33 6.96 2.66 10.92 3 15 C3.99 15 4.98 15 6 15 C6 15.66 6 16.32 6 17 C4.02 16.34 2.04 15.68 0 15 C0 10.05 0 5.1 0 0 Z " fill="#B76C44" transform="translate(59,105)"/>
<path d="M0 0 C0.33 0 0.66 0 1 0 C1 4.62 1 9.24 1 14 C2.44375 13.34 3.8875 12.68 5.375 12 C9.75 10 9.75 10 12 10 C11 13 11 13 9.2578125 14.203125 C8.55398437 14.54859375 7.85015625 14.8940625 7.125 15.25 C6.42632812 15.60578125 5.72765625 15.9615625 5.0078125 16.328125 C3 17 3 17 0 16 C0 10.72 0 5.44 0 0 Z " fill="#706440" transform="translate(89,85)"/>
<path d="M0 0 C2.5 0.125 2.5 0.125 3.5 1.125 C3.625 3.625 3.625 3.625 3.5 6.125 C2.5 7.125 2.5 7.125 0 7.25 C-2.5 7.125 -2.5 7.125 -3.5 6.125 C-3.625 3.625 -3.625 3.625 -3.5 1.125 C-2.5 0.125 -2.5 0.125 0 0 Z " fill="#E67332" transform="translate(95.5,8.875)"/>
<path d="M0 0 C1.66611905 -0.042721 3.33382885 -0.04063832 5 0 C6 1 6 1 6.0625 3.5625 C6.041875 4.366875 6.02125 5.17125 6 6 C3.625 6.625 3.625 6.625 1 7 C0.34 6.34 -0.32 5.68 -1 5 C-0.625 2.375 -0.625 2.375 0 0 Z " fill="#99C37D" transform="translate(25,119)"/>
<path d="M0 0 C0.33 0 0.66 0 1 0 C1 5.28 1 10.56 1 16 C-3 17 -3 17 -4.921875 16.22265625 C-6.61458333 15.1484375 -8.30729167 14.07421875 -10 13 C-9.67 12.34 -9.34 11.68 -9 11 C-6.03 11.99 -3.06 12.98 0 14 C0 9.38 0 4.76 0 0 Z " fill="#5A6861" transform="translate(42,60)"/>
<path d="M0 0 C6 2 6 2 8 4 C5.03 3.505 5.03 3.505 2 3 C2 6.63 2 10.26 2 14 C2.66 14.33 3.32 14.66 4 15 C3.01 15.495 3.01 15.495 2 16 C1.34 15.67 0.68 15.34 0 15 C0 10.05 0 5.1 0 0 Z " fill="#C1A656" transform="translate(59,87)"/>
<path d="M0 0 C0.66 0.33 1.32 0.66 2 1 C2 6.61 2 12.22 2 18 C1.67 18 1.34 18 1 18 C1 13.71 1 9.42 1 5 C-0.98 5.33 -2.96 5.66 -5 6 C-5.66 5.34 -6.32 4.68 -7 4 C-1.7265625 0.77734375 -1.7265625 0.77734375 0 0 Z " fill="#3C6C6C" transform="translate(85,84)"/>
<path d="M0 0 C1.82190102 0.70534883 3.63241287 1.44017093 5.4375 2.1875 C6.95150391 2.79658203 6.95150391 2.79658203 8.49609375 3.41796875 C11 5 11 5 11.84765625 7.67578125 C11.92306641 8.82626953 11.92306641 8.82626953 12 10 C11.01 10 10.02 10 9 10 C9 9.34 9 8.68 9 8 C5.37 6.35 1.74 4.7 -2 3 C-1.34 2.67 -0.68 2.34 0 2 C0 1.34 0 0.68 0 0 Z " fill="#5F6368" transform="translate(102,43)"/>
<path d="M0 0 C0.66 0 1.32 0 2 0 C2 4.62 2 9.24 2 14 C-0.97 13.505 -0.97 13.505 -4 13 C-4.33 12.34 -4.66 11.68 -5 11 C-3.35 11 -1.7 11 0 11 C0 7.37 0 3.74 0 0 Z " fill="#C06D45" transform="translate(70,75)"/>
<path d="M0 0 C0.33 0 0.66 0 1 0 C1 4.62 1 9.24 1 14 C5.9928809 13.06779935 5.9928809 13.06779935 9 10 C11.1875 9.3125 11.1875 9.3125 13 9 C12.06896676 11.32758311 11.34617872 12.74357132 9.3125 14.25 C7 15 7 15 0 15 C0 10.05 0 5.1 0 0 Z " fill="#53363B" transform="translate(102,61)"/>
<path d="M0 0 C1.77503906 0.71349609 1.77503906 0.71349609 3.5859375 1.44140625 C4.77445313 1.91449219 5.96296875 2.38757812 7.1875 2.875 C8.10273437 3.24753906 9.01796875 3.62007812 9.9609375 4.00390625 C9.3215625 4.10703125 8.6821875 4.21015625 8.0234375 4.31640625 C7.3428125 4.54328125 6.6621875 4.77015625 5.9609375 5.00390625 C5.6309375 5.99390625 5.3009375 6.98390625 4.9609375 8.00390625 C4.3009375 7.67390625 3.6409375 7.34390625 2.9609375 7.00390625 C3.2909375 6.34390625 3.6209375 5.68390625 3.9609375 5.00390625 C3.0328125 4.73578125 2.1046875 4.46765625 1.1484375 4.19140625 C-1.80146616 3.09242254 -3.09521436 2.37972064 -5.0390625 0.00390625 C-3.0390625 -0.99609375 -3.0390625 -0.99609375 0 0 Z " fill="#696D74" transform="translate(94.0390625,52.99609375)"/>
<path d="M0 0 C2.475 0.99 2.475 0.99 5 2 C5 6.95 5 11.9 5 17 C4.34 17 3.68 17 3 17 C2.95101562 16.00097656 2.90203125 15.00195312 2.8515625 13.97265625 C2.77679688 12.68230469 2.70203125 11.39195313 2.625 10.0625 C2.55539063 8.77472656 2.48578125 7.48695312 2.4140625 6.16015625 C2.27742188 5.11730469 2.14078125 4.07445313 2 3 C1.34 2.67 0.68 2.34 0 2 C0 1.34 0 0.68 0 0 Z " fill="#C8A658" transform="translate(67,91)"/>
<path d="M0 0 C0.99 0.33 1.98 0.66 3 1 C3.6875 3.0625 3.6875 3.0625 4 5 C-1.75 8 -1.75 8 -4 8 C-4.33 8.99 -4.66 9.98 -5 11 C-5 10.01 -5 9.02 -5 8 C-6.98 8 -8.96 8 -11 8 C-11 7.67 -11 7.34 -11 7 C-9.56445975 6.49440092 -8.1264798 5.9957251 -6.6875 5.5 C-5.88699219 5.2215625 -5.08648437 4.943125 -4.26171875 4.65625 C-2 4 -2 4 1 4 C0.67 2.68 0.34 1.36 0 0 Z " fill="#375B6C" transform="translate(81,49)"/>
<path d="M0 0 C0.99 0 1.98 0 3 0 C3 0.99 3 1.98 3 3 C5.31 3.66 7.62 4.32 10 5 C9.67 6.65 9.34 8.3 9 10 C5 7.33333333 1 4.66666667 -3 2 C-2.01 2 -1.02 2 0 2 C0 1.34 0 0.68 0 0 Z " fill="#344E6D" transform="translate(60,50)"/>
<path d="M0 0 C2.475 0.99 2.475 0.99 5 2 C5 6.95 5 11.9 5 17 C3.02 16.34 1.04 15.68 -1 15 C-1 14.67 -1 14.34 -1 14 C0.65 14 2.3 14 4 14 C4 10.7 4 7.4 4 4 C2.68 4.33 1.36 4.66 0 5 C0 3.35 0 1.7 0 0 Z " fill="#D4BC4E" transform="translate(37,93)"/>
<path d="M0 0 C4.49797113 1.68673918 8.72886302 3.81673892 13 6 C13 6.66 13 7.32 13 8 C7.71862571 7.48474397 4.42778844 5.74522883 0 3 C0 2.01 0 1.02 0 0 Z " fill="#654529" transform="translate(59,102)"/>
<path d="M0 0 C1.98 0.66 3.96 1.32 6 2 C4.68 2.33 3.36 2.66 2 3 C1.67 6.63 1.34 10.26 1 14 C2.65 14 4.3 14 6 14 C6 14.99 6 15.98 6 17 C4.02 16.34 2.04 15.68 0 15 C0 10.05 0 5.1 0 0 Z " fill="#C4B452" transform="translate(30,90)"/>
<path d="M0 0 C0.66 0.33 1.32 0.66 2 1 C1.01 1.33 0.02 1.66 -1 2 C-1.33 2.99 -1.66 3.98 -2 5 C-2.99 5 -3.98 5 -5 5 C-5 8.63 -5 12.26 -5 16 C-4.01 16.33 -3.02 16.66 -2 17 C-3.32 17.33 -4.64 17.66 -6 18 C-6.08097324 15.72975032 -6.13917704 13.45867925 -6.1875 11.1875 C-6.22230469 9.92292969 -6.25710937 8.65835938 -6.29296875 7.35546875 C-6 4 -6 4 -4.67578125 2.11328125 C-3 1 -3 1 0 0 Z " fill="#268782" transform="translate(81,107)"/>
<path d="M0 0 C1.7074998 1.28062485 3.37373596 2.61767557 5 4 C5 4.66 5 5.32 5 6 C2.69 5.34 0.38 4.68 -2 4 C-2 8.95 -2 13.9 -2 19 C-2.33 19 -2.66 19 -3 19 C-3.0809313 16.39521117 -3.14045434 13.79293347 -3.1875 11.1875 C-3.22520508 10.08051758 -3.22520508 10.08051758 -3.26367188 8.95117188 C-3.33834499 3.45025238 -3.33834499 3.45025238 -1.48828125 0.98828125 C-0.99714844 0.66214844 -0.50601563 0.33601563 0 0 Z " fill="#554334" transform="translate(61,65)"/>
<path d="M0 0 C5.77378925 0.4811491 9.95859836 2.18467181 15 5 C14.67 5.99 14.34 6.98 14 8 C13.34 8 12.68 8 12 8 C12 7.34 12 6.68 12 6 C10.700625 5.5978125 10.700625 5.5978125 9.375 5.1875 C6.08208036 4.02888013 3.08872125 2.61790161 0 1 C0 0.67 0 0.34 0 0 Z " fill="#603A35" transform="translate(42,44)"/>
<path d="M0 0 C0.33 1.32 0.66 2.64 1 4 C-4.75 7 -4.75 7 -7 7 C-7.33 7.66 -7.66 8.32 -8 9 C-8 8.34 -8 7.68 -8 7 C-9.65 7 -11.3 7 -13 7 C-13 6.67 -13 6.34 -13 6 C-11.906875 5.71125 -10.81375 5.4225 -9.6875 5.125 C-5.95986155 4.18106796 -5.95986155 4.18106796 -3 2 C-2.01 2 -1.02 2 0 2 C0 1.34 0 0.68 0 0 Z " fill="#664A3D" transform="translate(98,43)"/>
<path d="M0 0 C0.66 0.33 1.32 0.66 2 1 C-0.9905167 4.33557632 -3.93184627 6.15083921 -8 8 C-8 7.34 -8 6.68 -8 6 C-8.66 5.67 -9.32 5.34 -10 5 C-8.38007835 4.13624104 -6.75388139 3.28424146 -5.125 2.4375 C-4.22007813 1.96183594 -3.31515625 1.48617187 -2.3828125 0.99609375 C-1.20332031 0.50302734 -1.20332031 0.50302734 0 0 Z " fill="#615462" transform="translate(56,35)"/>
<path d="M0 0 C3.37462715 0.54723683 5.08235 1.0549 8 3 C7.34 3 6.68 3 6 3 C6 7.95 6 12.9 6 18 C5.67 18 5.34 18 5 18 C4.96132812 16.51886719 4.96132812 16.51886719 4.921875 15.0078125 C4.86515625 13.72648437 4.8084375 12.44515625 4.75 11.125 C4.70359375 9.84882812 4.6571875 8.57265625 4.609375 7.2578125 C4.37444944 3.90811895 4.37444944 3.90811895 1.953125 2.5546875 C1.30859375 2.37164062 0.6640625 2.18859375 0 2 C0 1.34 0 0.68 0 0 Z " fill="#533D2F" transform="translate(67,71)"/>
<path d="M0 0 C-0.99 0.66 -1.98 1.32 -3 2 C-3.54398438 2.36480469 -4.08796875 2.72960937 -4.6484375 3.10546875 C-9.35477108 6.0549131 -9.35477108 6.0549131 -12.9375 5.75 C-13.618125 5.5025 -14.29875 5.255 -15 5 C-9.91028022 1.60685348 -6.23423297 -0.44530236 0 0 Z " fill="#55553F" transform="translate(87,68)"/>
<path d="M0 0 C-0.80824219 0.33644531 -1.61648437 0.67289062 -2.44921875 1.01953125 C-5.37520262 2.84441143 -5.37520262 2.84441143 -5.70703125 6.57421875 C-5.76660733 7.94446863 -5.80097482 9.31600403 -5.8125 10.6875 C-5.83763672 11.38939453 -5.86277344 12.09128906 -5.88867188 12.81445312 C-5.94744448 14.54236781 -5.9766097 16.2712443 -6 18 C-6.33 18 -6.66 18 -7 18 C-7 12.06 -7 6.12 -7 0 C-3 -1 -3 -1 0 0 Z " fill="#2C4443" transform="translate(80,90)"/>
<path d="M0 0 C0.99 0 1.98 0 3 0 C3.33 1.32 3.66 2.64 4 4 C3.01 4 2.02 4 1 4 C1 8.62 1 13.24 1 18 C0.67 18 0.34 18 0 18 C0 12.06 0 6.12 0 0 Z " fill="#333840" transform="translate(28,50)"/>
<path d="M0 0 C-2.91765 1.9451 -4.62537285 2.45276317 -8 3 C-8.33 4.65 -8.66 6.3 -9 8 C-10.32 7.34 -11.64 6.68 -13 6 C-8.86897764 1.57390462 -6.14917493 -0.34162083 0 0 Z " fill="#56608F" transform="translate(60,53)"/>
<path d="M0 0 C-9.41002278 4.59225513 -9.41002278 4.59225513 -14 4 C-14.33 3.34 -14.66 2.68 -15 2 C-14.29875 1.87625 -13.5975 1.7525 -12.875 1.625 C-9.92892938 1.05357214 -9.92892938 1.05357214 -6.9375 -0.125 C-3.88804689 -1.03334774 -2.92064572 -0.89189611 0 0 Z " fill="#6B5F5C" transform="translate(85,39)"/>
<path d="M0 0 C1.32 0.66 2.64 1.32 4 2 C1.03 3.32 -1.94 4.64 -5 6 C-5.66 5.34 -6.32 4.68 -7 4 C-1.921875 0.6796875 -1.921875 0.6796875 0 0 Z " fill="#31575A" transform="translate(85,120)"/>
<path d="M0 0 C0.33 0 0.66 0 1 0 C1 5.61 1 11.22 1 17 C-0.32 17 -1.64 17 -3 17 C-3.33 16.01 -3.66 15.02 -4 14 C-2.68 14 -1.36 14 0 14 C0 9.38 0 4.76 0 0 Z " fill="#553F37" transform="translate(72,111)"/>
<path d="M0 0 C4.455 1.98 4.455 1.98 9 4 C9 4.99 9 5.98 9 7 C2.29787234 5.06382979 2.29787234 5.06382979 0 2 C0 1.34 0 0.68 0 0 Z " fill="#5F4D48" transform="translate(60,120)"/>
<path d="M0 0 C4.12751449 0.60698743 7.3321148 2.03810791 11 4 C8.00468461 4.99843846 6.82744268 5.00732761 3.8125 4.5625 C2.554375 4.376875 1.29625 4.19125 0 4 C0 2.68 0 1.36 0 0 Z " fill="#4C494D" transform="translate(82,34)"/>
<path d="M0 0 C0.33 0 0.66 0 1 0 C1 4.95 1 9.9 1 15 C2.32 15.66 3.64 16.32 5 17 C3.35 17 1.7 17 0 17 C-1.54897985 13.9020403 -0.83239539 10.73783448 -0.5625 7.375 C-0.51029297 6.66859375 -0.45808594 5.9621875 -0.40429688 5.234375 C-0.27458793 3.48920013 -0.13795046 1.74454275 0 0 Z " fill="#575535" transform="translate(29,90)"/>
<path d="M0 0 C5.75 1.875 5.75 1.875 8 3 C8 3.66 8 4.32 8 5 C4.535 6.485 4.535 6.485 1 8 C1.33 7.01 1.66 6.02 2 5 C2.66 4.67 3.32 4.34 4 4 C2.68 3.34 1.36 2.68 0 2 C0 1.34 0 0.68 0 0 Z " fill="#CB7542" transform="translate(46,47)"/>
<path d="M0 0 C2.97 0.495 2.97 0.495 6 1 C5.67 2.32 5.34 3.64 5 5 C3.35 5 1.7 5 0 5 C0 3.35 0 1.7 0 0 Z " fill="#397EA9" transform="translate(109,25)"/>
<path d="M0 0 C1.32 0.66 2.64 1.32 4 2 C3.01 2 2.02 2 1 2 C1 2.66 1 3.32 1 4 C2.32 4.66 3.64 5.32 5 6 C1.26512223 5.5020163 -0.81237635 5.12508244 -4 3 C-4 2.34 -4 1.68 -4 1 C-2.68 1.33 -1.36 1.66 0 2 C0 1.34 0 0.68 0 0 Z " fill="#A26A3A" transform="translate(66,69)"/>
<path d="M0 0 C2 1 2 1 3 3 C-0.465 4.485 -0.465 4.485 -4 6 C-4 5.34 -4 4.68 -4 4 C-4.66 3.67 -5.32 3.34 -6 3 C-4.03533587 1.93224776 -2.03144641 0.93446535 0 0 Z " fill="#636B6F" transform="translate(98,113)"/>
<path d="M0 0 C2.5 0.125 2.5 0.125 3.5 1.125 C3.54063832 2.79117115 3.542721 4.45888095 3.5 6.125 C3.17 4.805 2.84 3.485 2.5 2.125 C1.51 2.455 0.52 2.785 -0.5 3.125 C-1.16 2.795 -1.82 2.465 -2.5 2.125 C-2.83 3.445 -3.16 4.765 -3.5 6.125 C-3.542721 4.45888095 -3.54063832 2.79117115 -3.5 1.125 C-2.5 0.125 -2.5 0.125 0 0 Z " fill="#E4895A" transform="translate(95.5,8.875)"/>
<path d="M0 0 C4.93928888 -0.3367697 5.78492722 -0.16130459 10 3 C6.7 2.67 3.4 2.34 0 2 C0 1.34 0 0.68 0 0 Z " fill="#43445A" transform="translate(44,96)"/>
<path d="M0 0 C0.66 0.33 1.32 0.66 2 1 C-0.87164566 3.70272533 -2.30991841 4.94791837 -6.3125 5.25 C-7.199375 5.1675 -8.08625 5.085 -9 5 C-6.06626269 3.04417512 -3.21783702 1.43775696 0 0 Z " fill="#5A3C56" transform="translate(66,45)"/>
<path d="M0 0 C0.33 0 0.66 0 1 0 C1 1.65 1 3.3 1 5 C-4.75 8 -4.75 8 -7 8 C-7 7.34 -7 6.68 -7 6 C-4 4 -4 4 0 4 C0 2.68 0 1.36 0 0 Z " fill="#D1793F" transform="translate(114,65)"/>
<path d="M0 0 C0 0.99 0 1.98 0 3 C-0.639375 3.12375 -1.27875 3.2475 -1.9375 3.375 C-2.618125 3.58125 -3.29875 3.7875 -4 4 C-4.33 4.66 -4.66 5.32 -5 6 C-5 5.34 -5 4.68 -5 4 C-5.66 3.67 -6.32 3.34 -7 3 C-2.25 0 -2.25 0 0 0 Z " fill="#655D5C" transform="translate(36,46)"/>
<path d="M0 0 C-0.33 1.32 -0.66 2.64 -1 4 C-0.34 4 0.32 4 1 4 C1 4.66 1 5.32 1 6 C-1.475 5.01 -1.475 5.01 -4 4 C-4 3.01 -4 2.02 -4 1 C-2 0 -2 0 0 0 Z " fill="#BB6B40" transform="translate(81,41)"/>
<path d="M0 0 C0 0.66 0 1.32 0 2 C-4.15267176 5.11450382 -4.15267176 5.11450382 -7.3125 4.6875 C-7.869375 4.460625 -8.42625 4.23375 -9 4 C-2.25 0 -2.25 0 0 0 Z " fill="#336E99" transform="translate(114,91)"/>
<path d="M0 0 C1.32 0 2.64 0 4 0 C6.25 2.5 6.25 2.5 8 5 C4.5625 4.1875 4.5625 4.1875 1 3 C0.67 2.01 0.34 1.02 0 0 Z " fill="#D5BE53" transform="translate(62,65)"/>
<path d="M0 0 C4.75 1.875 4.75 1.875 7 3 C7 3.66 7 4.32 7 5 C4.61435923 4.42415568 2.33317216 3.77772405 0 3 C0 2.01 0 1.02 0 0 Z " fill="#534127" transform="translate(59,102)"/>
<path d="M0 0 C0.99 0.33 1.98 0.66 3 1 C0.82575883 3.50037734 -0.73045798 4.43628586 -4 5 C-4 4.34 -4 3.68 -4 3 C-3.34 3 -2.68 3 -2 3 C-2 2.34 -2 1.68 -2 1 C-1.34 0.67 -0.68 0.34 0 0 Z " fill="#D7C24D" transform="translate(81,65)"/>
<path d="M0 0 C3.14624993 -0.26218749 4.61837017 -0.24754367 7.3125 1.5 C8.1478125 2.2425 8.1478125 2.2425 9 3 C7.3125 3.6875 7.3125 3.6875 5 4 C2.25 2.625 2.25 2.625 0 1 C0 0.67 0 0.34 0 0 Z " fill="#5E4355" transform="translate(60,38)"/>
<path d="M0 0 C-1.32 1.32 -2.64 2.64 -4 4 C-5.32 3.34 -6.64 2.68 -8 2 C-4.77208445 -0.1519437 -3.71599191 -0.20086443 0 0 Z " fill="#60646A" transform="translate(70,30)"/>
</svg>
