<?xml version="1.0" encoding="UTF-8"?>
<svg id="Layer_1" xmlns="http://www.w3.org/2000/svg" version="1.1" viewBox="0 0 612 792">
  <!-- Generator: Adobe Illustrator 30.1.0, SVG Export Plug-In . SVG Version: 2.1.1 Build 136)  -->
  <defs>
    <style>
      .st0 {
        fill: none;
      }

      .st1, .st2, .st3, .st4, .st5, .st6, .st7, .st8, .st9, .st10, .st11, .st12 {
        stroke: #334750;
        stroke-width: 5px;
      }

      .st1, .st2, .st3, .st4, .st5, .st6, .st7, .st8, .st9, .st10, .st11, .st12, .st13 {
        stroke-miterlimit: 10;
      }

      .st1, .st13, .st14 {
        fill: #e27a37;
      }

      .st15, .st2 {
        fill: #7cb364;
      }

      .st16, .st10 {
        fill: #618ac5;
      }

      .st17, .st6 {
        fill: #c8547d;
      }

      .st3 {
        fill: #f3c867;
      }

      .st4 {
        fill: #0084c0;
      }

      .st5 {
        fill: #009393;
      }

      .st7 {
        fill: #f2b84b;
      }

      .st8 {
        fill: #fefefe;
      }

      .st9 {
        fill: #6b649e;
      }

      .st11 {
        fill: #0094d2;
      }

      .st12 {
        fill: #fff;
      }

      .st13 {
        stroke: #e27a37;
      }
    </style>
  </defs>
  <path class="st12" d="M346.54,548.13"/>
  <g>
    <path class="st3" d="M53.57,525.84v-85.64c0-4.02,4.23-6.64,7.83-4.84l69.68,34.82c1.83.92,2.99,2.79,2.99,4.84l-.05,86.35c0,4.04-4.27,6.65-7.87,4.82l-69.63-35.53c-1.81-.92-2.95-2.79-2.95-4.82Z"/>
    <path class="st6" d="M135.11,567.44l.05-86.47c0-4.02,4.23-6.63,7.83-4.84l71.11,35.54c1.84.92,2.99,2.79,2.99,4.85l-.1,87.19c0,4.04-4.27,6.65-7.87,4.81l-71.06-36.26c-1.81-.92-2.95-2.79-2.95-4.82Z"/>
    <path class="st1" d="M216.98,609.22l.1-87.31c0-4.02,4.23-6.63,7.83-4.83l72.55,36.26c1.84.92,2.99,2.8,2.99,4.85l-.15,88.04c0,4.04-4.27,6.64-7.87,4.81l-72.5-37c-1.81-.93-2.95-2.79-2.95-4.82Z"/>
    <path class="st2" d="M53.57,428.8v-85.82c0-4,4.19-6.62,7.79-4.86l69.73,34.12c1.86.91,3.03,2.8,3.03,4.86l-.05,86.53c0,4.02-4.23,6.63-7.83,4.84l-69.68-34.83c-1.83-.92-2.99-2.79-2.99-4.84Z"/>
    <polygon class="st11" points="135.17 472.93 135.22 374.26 217.2 414.38 217.09 513.88 135.17 472.93"/>
    <path class="st3" d="M217.09,510.53l.1-87.49c0-4,4.2-6.61,7.79-4.85l72.61,35.53c1.86.91,3.04,2.8,3.03,4.87l-.15,88.23c0,4.02-4.24,6.63-7.83,4.83l-72.56-36.27c-1.84-.92-2.99-2.79-2.99-4.85Z"/>
    <path class="st12" d="M53.57,331.63v-86c0-3.98,4.16-6.6,7.75-4.88l69.79,33.42c1.88.9,3.07,2.8,3.07,4.88l-.05,86.71c0,4-4.2,6.61-7.79,4.86l-69.74-34.13c-1.86-.91-3.03-2.79-3.03-4.86Z"/>
    <path class="st10" d="M135.22,371.59l.05-86.84c0-3.98,4.16-6.6,7.75-4.88l71.22,34.11c1.88.9,3.08,2.8,3.07,4.89l-.1,87.56c0,4-4.2,6.61-7.79,4.85l-71.17-34.83c-1.86-.91-3.03-2.8-3.03-4.86Z"/>
    <path class="st1" d="M217.2,411.71l.1-87.68c0-3.98,4.16-6.59,7.75-4.87l72.67,34.8c1.88.9,3.08,2.8,3.07,4.89l-.15,88.41c0,4-4.2,6.61-7.79,4.85l-72.61-35.54c-1.86-.91-3.03-2.8-3.03-4.87Z"/>
  </g>
  <g>
    <path class="st0" d="M513.82,431.16"/>
    <g>
      <path class="st5" d="M304.45,649.94l.04-90c0-2.07,1.2-3.94,3.09-4.8l72.58-33.34c3.62-1.66,7.77.96,7.77,4.91l.09,90.22c0,2.06-1.21,3.93-3.12,4.79l-72.78,33.07c-3.56,1.62-7.67-.98-7.67-4.85Z"/>
      <path class="st12" d="M389.14,611.45l-.09-90.27c0-2.11,1.24-4.03,3.17-4.92l73.16-33.6c3.66-1.68,7.81.92,7.82,4.9l.21,90.49c0,2.11-1.25,4.03-3.2,4.91l-73.36,33.33c-3.59,1.63-7.71-.95-7.72-4.84Z"/>
      <path class="st4" d="M473.4,573.16l-.22-90.54c0-2.16,1.27-4.13,3.25-5.04l73.73-33.86c3.69-1.69,7.84.89,7.86,4.89l.34,90.76c0,2.15-1.28,4.13-3.28,5.03l-73.93,33.59c-3.63,1.65-7.75-.92-7.76-4.83Z"/>
      <path class="st5" d="M304.49,548.79l.04-89.42c0-2.12,1.23-4.04,3.14-4.93l72.32-33.57c3.66-1.7,7.84.96,7.84,5l.09,89.63c0,2.11-1.23,4.03-3.17,4.92l-72.52,33.31c-3.6,1.65-7.74-.99-7.74-4.93Z"/>
      <path class="st7" d="M389.04,509.95l-.09-89.69c0-2.17,1.26-4.14,3.22-5.05l72.89-33.84c3.69-1.71,7.87.93,7.88,4.98l.21,89.9c0,2.16-1.27,4.13-3.25,5.05l-73.09,33.57c-3.63,1.67-7.78-.96-7.78-4.92Z"/>
      <path class="st9" d="M473.16,471.31l-.21-89.95c0-2.21,1.29-4.24,3.31-5.18l73.46-34.1c3.73-1.73,7.91.89,7.93,4.97l.34,90.17c0,2.21-1.3,4.24-3.33,5.17l-73.66,33.83c-3.66,1.68-7.82-.92-7.83-4.91Z"/>
      <path class="st12" d="M304.53,447.98l.04-88.84c0-2.17,1.25-4.15,3.2-5.06l72.07-33.81c3.7-1.73,7.9.97,7.91,5.08l.09,89.05c0,2.17-1.26,4.14-3.22,5.05l-72.26,33.54c-3.63,1.69-7.81-1-7.81-5.02Z"/>
      <path class="st6" d="M388.94,408.79l-.09-89.1c0-2.22,1.28-4.25,3.28-5.19l72.63-34.07c3.73-1.75,7.94.93,7.95,5.07l.21,89.31c0,2.22-1.29,4.24-3.3,5.18l-72.83,33.81c-3.67,1.7-7.85-.96-7.85-5.01Z"/>
      <path class="st1" d="M472.92,369.8l-.21-89.36c0-2.27,1.31-4.35,3.36-5.31l73.2-34.34c3.77-1.77,7.98.9,7.99,5.05l.34,89.58c0,2.26-1.32,4.35-3.39,5.31l-73.4,34.07c-3.7,1.72-7.88-.93-7.89-4.99Z"/>
    </g>
  </g>
  <g>
    <path class="st1" d="M63.26,238.4l75.85-32.88c.8-.35,1.7-.37,2.43-.05l72.81,31.43c2.07.89,1.93,3.62-.24,4.58l-77.14,34.28c-.84.37-1.77.39-2.53.04l-71.89-32.83c-1.96-.89-1.53-3.6.71-4.57Z"/>
    <path class="st10" d="M142.32,274.35l76.97-34.21c.8-.35,1.7-.37,2.47-.04l76.84,33.17c2.19.95,2.2,3.84,0,4.84l-78.27,35.72c-.83.38-1.78.39-2.57.03l-75.93-34.67c-2.08-.95-1.78-3.82.5-4.83Z"/>
    <path class="st3" d="M224.72,311.81l78.08-35.62c.79-.36,1.71-.37,2.51-.03l81.15,35.03c2.33,1,2.5,4.08.29,5.12l-79.39,37.24c-.83.39-1.79.39-2.62.02l-80.26-36.65c-2.2-1.01-2.05-4.05.25-5.1Z"/>
    <path class="st6" d="M145.03,202.94l74.11-32.13c.76-.33,1.64-.35,2.37-.05l73.9,30.21c2.07.85,2.09,3.44.02,4.35l-75.32,33.47c-.8.35-1.7.37-2.47.04l-73.06-31.55c-1.96-.85-1.7-3.42.43-4.35Z"/>
    <path class="st11" d="M225.29,237.46l75.15-33.41c.76-.34,1.64-.35,2.4-.04l77.94,31.86c2.19.9,2.36,3.64.28,4.59l-76.37,34.84c-.79.36-1.71.37-2.5.03l-77.11-33.3c-2.08-.9-1.95-3.63.21-4.59Z"/>
    <path class="st8" d="M308.88,273.41l76.18-34.76c.75-.34,1.65-.35,2.44-.03l82.25,33.63c2.33.95,2.67,3.87.56,4.85l-77.4,36.3c-.78.37-1.72.37-2.55.02l-81.45-35.17c-2.2-.95-2.23-3.85-.04-4.84Z"/>
    <path class="st12" d="M224.77,168.37l72.43-31.4c.72-.31,1.58-.33,2.31-.05l74.93,29.05c2.07.8,2.23,3.26.27,4.14l-73.56,32.69c-.76.34-1.64.35-2.4.04l-74.15-30.33c-1.97-.8-1.86-3.25.17-4.13Z"/>
    <path class="st1" d="M306.14,201.52l73.4-32.63c.72-.32,1.58-.33,2.34-.04l78.97,30.61c2.19.85,2.51,3.46.53,4.36l-74.53,34.01c-.75.34-1.65.35-2.44.03l-78.21-31.99c-2.08-.85-2.11-3.44-.06-4.36Z"/>
    <path class="st8" d="M390.82,236.02l74.35-33.92c.71-.32,1.59-.34,2.38-.03l83.28,32.29c2.32.9,2.82,3.67.82,4.6l-75.48,35.4c-.74.35-1.66.36-2.48.02l-82.55-33.76c-2.2-.9-2.39-3.65-.31-4.6Z"/>
  </g>
  <circle class="st15" cx="61.3" cy="609.12" r="13.1"/>
  <circle class="st13" cx="154.59" cy="672.16" r="20.52"/>
  <circle class="st17" cx="241.8" cy="655.24" r="9.29"/>
  <circle class="st14" cx="357.09" cy="117.73" r="7.21"/>
  <circle class="st14" cx="583.23" cy="177.76" r="7.21"/>
  <circle class="st14" cx="408.01" cy="56.28" r="15.73"/>
  <circle class="st16" cx="526.7" cy="105.82" r="30.9"/>
</svg>